<svg xmlns="http://www.w3.org/2000/svg" viewBox="0 0 621.75 661"><defs><style>.cls-1,.cls-2{fill:#83b655;}.cls-1,.cls-11,.cls-13,.cls-14,.cls-16,.cls-18,.cls-19,.cls-20,.cls-21,.cls-22,.cls-23,.cls-24,.cls-25,.cls-27,.cls-3,.cls-4,.cls-7,.cls-8{fill-rule:evenodd;}.cls-3{fill:#92c265;}.cls-4{fill:#4c7e3a;}.cls-5,.cls-8{fill:#679c41;}.cls-6{fill:#51863d;}.cls-7{fill:#3d6a33;}.cls-16,.cls-9{fill:#d8eac2;}.cls-10,.cls-11{fill:#cce4b2;}.cls-12{fill:#97cb64;}.cls-13{fill:#568b3e;}.cls-14{fill:#bedda0;}.cls-15,.cls-20{fill:#edf4dc;}.cls-17,.cls-21{fill:#aed580;}.cls-18{fill:#5f9941;}.cls-19{fill:#c3dfab;}.cls-22{fill:#f8fbf1;}.cls-23{fill:#97c96a;}.cls-24{fill:#c0dd96;}.cls-25{fill:#7bb645;}.cls-26{fill:#febb12;}.cls-27{fill:#e19525;}.cls-28{fill:#f4a51d;}</style></defs><title>money_in_vault</title><g id="Layer_2" data-name="Layer 2"><g id="publicdomainvectors.org"><path class="cls-1" d="M0,661" transform="translate(-39.25)"/><line class="cls-2" x1="621.75" y1="661" x2="621.75"/><path class="cls-3" d="M330.5,67.8c160.85,0,291.25,130.4,291.25,291.25a290.12,290.12,0,0,1-71.23,190.84h-440A290.12,290.12,0,0,1,39.25,359C39.25,198.19,169.65,67.8,330.5,67.8Z" transform="translate(-39.25)"/><path class="cls-4" d="M129.49,523.93H175v17.61H129.49V523.93Zm356.54,0h45.48v17.61H486Z" transform="translate(-39.25)"/><rect class="cls-5" x="66.03" y="209.79" width="450.44" height="314.14"/><rect class="cls-6" x="88.59" y="232.35" width="405.32" height="269.02"/><path class="cls-7" d="M341.7,450.13a71,71,0,1,0-71-71A71.11,71.11,0,0,0,341.7,450.13Z" transform="translate(-39.25)"/><path class="cls-8" d="M330.5,437.84a71,71,0,1,0-71-71A71.11,71.11,0,0,0,330.5,437.84Z" transform="translate(-39.25)"/><rect class="cls-9" x="192.71" y="429.71" width="277.22" height="27.96"/><rect class="cls-10" x="390.73" y="429.71" width="79.21" height="27.96"/><path class="cls-11" d="M430,438.09c33.34.34,41.05.68,74.39,1-33.34.34-41.05.68-74.39,1-56.16-.34-137.94-.68-194.09-1,56.15-.34,137.94-.68,194.09-1Zm0-4.78,74.39,1-74.39,1-194.09-1,194.09-1Zm0,9.56c33.34.34,41.05.68,74.39,1-33.34.34-41.05.68-74.39,1-56.16-.34-137.94-.68-194.09-1,56.15-.34,137.94-.68,194.09-1Zm0,4.78c33.34.34,41.05.68,74.39,1-33.34.34-41.05.68-74.39,1-56.16-.34-137.94-.68-194.09-1,56.15-.34,137.94-.68,194.09-1Zm0,4.78,74.39,1-74.39,1-194.09-1Z" transform="translate(-39.25)"/><rect class="cls-12" x="254.16" y="429.71" width="70.47" height="27.96"/><path class="cls-13" d="M299.89,429.71h8.3v28h-8.3v-28Zm49.21,0h8.3v28h-8.3Z" transform="translate(-39.25)"/><path class="cls-14" d="M430,454.47v-2l74.39,1-74.39,1Zm0-4.78v-2c33.34.34,41.05.68,74.39,1-33.34.34-41.05.68-74.39,1Zm0-4.78v-2c33.34.34,41.05.68,74.39,1-33.34.34-41.05.68-74.39,1Zm0-4.78v-2c33.34.34,41.05.68,74.39,1-33.34.34-41.05.68-74.39,1Zm0-4.78v-2l74.39,1Z" transform="translate(-39.25)"/><rect class="cls-15" x="174.44" y="401.76" width="277.23" height="27.95"/><rect class="cls-9" x="372.46" y="401.76" width="79.21" height="27.95"/><path class="cls-16" d="M411.71,410.13c33.34.34,41.06.68,74.4,1-33.34.34-41.06.68-74.4,1-56.16-.34-137.94-.68-194.09-1,56.16-.34,137.94-.68,194.09-1Zm0-4.78,74.4,1-74.4,1-194.09-1,194.09-1Zm0,9.56c33.34.34,41.06.68,74.4,1-33.34.34-41.06.68-74.4,1-56.16-.34-137.94-.68-194.09-1,56.16-.34,137.94-.68,194.09-1Zm0,4.78c33.34.34,41.06.68,74.4,1-33.34.34-41.06.68-74.4,1-56.16-.34-137.94-.68-194.09-1,56.16-.34,137.94-.68,194.09-1Zm0,4.78,74.4,1-74.4,1-194.09-1Z" transform="translate(-39.25)"/><rect class="cls-17" x="235.89" y="401.76" width="70.47" height="27.95"/><path class="cls-18" d="M281.62,401.76h8.3v28h-8.3v-28Zm49.21,0h8.3v28h-8.3Z" transform="translate(-39.25)"/><path class="cls-11" d="M411.71,426.51v-2l74.4,1-74.4,1Zm0-4.78v-2c33.34.34,41.06.68,74.4,1-33.34.34-41.06.68-74.4,1Zm0-4.78v-2c33.34.34,41.06.68,74.4,1-33.34.34-41.06.68-74.4,1Zm0-4.78v-2c33.34.34,41.06.68,74.4,1-33.34.34-41.06.68-74.4,1Zm0-4.78v-2l74.4,1Z" transform="translate(-39.25)"/><rect class="cls-15" x="183.83" y="513.58" width="277.22" height="27.96"/><rect class="cls-9" x="381.85" y="513.58" width="79.21" height="27.96"/><path class="cls-16" d="M421.1,522c33.34.34,41.05.68,74.39,1-33.34.34-41.05.68-74.39,1-56.16-.34-137.94-.68-194.09-1,56.15-.34,137.94-.68,194.09-1Zm0-4.78,74.39,1-74.39,1-194.09-1,194.09-1Zm0,9.56c33.34.34,41.05.68,74.39,1-33.34.34-41.05.68-74.39,1-56.16-.34-137.94-.68-194.09-1,56.15-.34,137.94-.68,194.09-1Zm0,4.78c33.34.34,41.05.68,74.39,1-33.34.34-41.05.68-74.39,1-56.16-.34-137.94-.68-194.09-1,56.15-.34,137.94-.68,194.09-1Zm0,4.78,74.39,1-74.39,1-194.09-1Z" transform="translate(-39.25)"/><rect class="cls-17" x="245.28" y="513.58" width="70.47" height="27.96"/><path class="cls-18" d="M291,513.58h8.3v28H291v-28Zm49.21,0h8.3v28h-8.3Z" transform="translate(-39.25)"/><path class="cls-11" d="M421.1,538.33v-2l74.39,1-74.39,1Zm0-4.78v-2c33.34.34,41.05.68,74.39,1-33.34.34-41.05.68-74.39,1Zm0-4.78v-2c33.34.34,41.05.68,74.39,1-33.34.34-41.05.68-74.39,1Zm0-4.78v-2c33.34.34,41.05.68,74.39,1-33.34.34-41.05.68-74.39,1Zm0-4.78v-2l74.39,1Z" transform="translate(-39.25)"/><rect class="cls-9" x="204.14" y="485.63" width="277.22" height="27.95"/><rect class="cls-10" x="402.16" y="485.63" width="79.21" height="27.95"/><path class="cls-11" d="M441.41,494c33.34.34,41.06.68,74.4,1-33.34.34-41.06.68-74.4,1-56.16-.34-137.94-.68-194.09-1,56.15-.34,137.94-.68,194.09-1Zm0-4.78,74.4,1-74.4,1-194.09-1,194.09-1Zm0,9.56c33.34.34,41.06.68,74.4,1-33.34.34-41.06.68-74.4,1-56.16-.34-137.94-.68-194.09-1,56.15-.34,137.94-.68,194.09-1Zm0,4.78c33.34.34,41.06.68,74.4,1-33.34.34-41.06.68-74.4,1-56.16-.34-137.94-.68-194.09-1,56.15-.34,137.94-.68,194.09-1Zm0,4.78,74.4,1-74.4,1-194.09-1Z" transform="translate(-39.25)"/><rect class="cls-12" x="265.59" y="485.63" width="70.47" height="27.95"/><path class="cls-13" d="M311.32,485.63h8.3v28h-8.3v-28Zm49.21,0h8.3v28h-8.3Z" transform="translate(-39.25)"/><path class="cls-14" d="M441.41,510.38v-2l74.4,1-74.4,1Zm0-4.78v-2c33.34.34,41.06.68,74.4,1-33.34.34-41.06.68-74.4,1Zm0-4.78v-2c33.34.34,41.06.68,74.4,1-33.34.34-41.06.68-74.4,1Zm0-4.78v-2c33.34.34,41.06.68,74.4,1-33.34.34-41.06.68-74.4,1Zm0-4.78v-2l74.4,1Z" transform="translate(-39.25)"/><rect class="cls-15" x="182.3" y="457.67" width="277.23" height="27.96"/><rect class="cls-9" x="380.32" y="457.67" width="79.21" height="27.96"/><path class="cls-16" d="M419.57,466c33.34.34,41.06.68,74.39,1-33.34.34-41.05.68-74.39,1-56.16-.34-137.94-.68-194.09-1,56.16-.34,137.94-.68,194.09-1Zm0-4.78,74.39,1-74.39,1-194.09-1,194.09-1Zm0,9.56c33.34.34,41.06.68,74.39,1-33.34.34-41.05.68-74.39,1-56.16-.34-137.94-.68-194.09-1,56.16-.34,137.94-.68,194.09-1Zm0,4.78c33.34.34,41.06.68,74.39,1-33.34.34-41.05.68-74.39,1-56.16-.34-137.94-.68-194.09-1,56.16-.34,137.94-.68,194.09-1Zm0,4.78,74.39,1-74.39,1-194.09-1Z" transform="translate(-39.25)"/><rect class="cls-17" x="243.75" y="457.67" width="70.47" height="27.96"/><path class="cls-18" d="M289.48,457.67h8.3v28h-8.3v-28Zm49.21,0H347v28h-8.3Z" transform="translate(-39.25)"/><path class="cls-11" d="M419.57,482.42v-2l74.39,1-74.39,1Zm0-4.78v-2c33.34.34,41.06.68,74.39,1-33.34.34-41.05.68-74.39,1Zm0-4.78v-2c33.34.34,41.06.68,74.39,1-33.34.34-41.05.68-74.39,1Zm0-4.78v-2c33.34.34,41.06.68,74.39,1-33.34.34-41.05.68-74.39,1Zm0-4.78v-2l74.39,1Z" transform="translate(-39.25)"/><polygon class="cls-19" points="228.82 401.76 228.82 429.71 232.61 429.71 232.61 457.67 229.55 457.67 229.55 485.63 234.65 485.63 234.65 513.58 230.42 513.58 230.42 541.54 177.85 541.54 224.4 401.76 228.82 401.76"/><polygon class="cls-20" points="179.17 541.54 203.64 343.52 231.6 343.52 207.13 541.54 179.17 541.54"/><path class="cls-16" d="M253.3,343.52c-7.28,56.16-17.72,137.94-25,194.09,6.6-56.16,16.37-137.94,23-194.09Zm14.34,0h-2l-23,194.09,25-194.09Zm-4.78,0h-2c-6.6,56.16-16.36,137.94-23,194.09,7.28-56.16,17.72-137.94,25-194.09Zm-4.78,0h-2c-6.6,56.16-16.36,137.94-23,194.09,7.28-56.16,17.72-137.94,25-194.09Zm-9.56,0h-2l-23,194.09Z" transform="translate(-39.25)"/><polygon class="cls-21" points="186.77 480.09 195.47 409.62 223.43 409.62 214.72 480.09 186.77 480.09"/><path class="cls-18" d="M226.82,473.61l1-8.3h28l-1,8.3Zm6.08-49.21,1-8.3h28l-1,8.3Z" transform="translate(-39.25)"/><polygon class="cls-22" points="203.64 343.52 125.6 343.52 101.13 541.54 179.17 541.54 203.64 343.52"/><path class="cls-23" d="M180.11,348.76h46.23a9.25,9.25,0,0,0,9.35,10.66L215.15,525.63a12.46,12.46,0,0,0-12,10.66H156.93a9.25,9.25,0,0,0-9.35-10.66l20.54-166.21a12.46,12.46,0,0,0,12-10.66Zm18.67,36c-5.33,0-10.24,4.74-11,10.58s3,10.58,8.35,10.58,10.24-4.74,11-10.58-3-10.58-8.35-10.58Zm-11.67,94.44c-5.33,0-10.24,4.74-11,10.58s3,10.58,8.35,10.58,10.24-4.74,11-10.58S192.44,479.17,187.11,479.17Z" transform="translate(-39.25)"/><polygon class="cls-24" points="186.77 480.09 195.47 409.62 117.43 409.62 108.72 480.09 186.77 480.09"/><path class="cls-25" d="M226.82,473.61l1-8.3h-78l-1,8.3Zm6.08-49.21,1-8.3h-78l-1,8.3Z" transform="translate(-39.25)"/><rect class="cls-26" x="148.62" y="203.31" width="45.14" height="7.32"/><path class="cls-27" d="M192.57,204.15H194v5.64h-1.42v-5.64Zm-3.12,0h1.42v5.64h-1.42v-5.64Zm6.24,0h1.42v5.64h-1.42v-5.64Zm3.12,0h1.42v5.64h-1.42v-5.64Zm3.12,0h1.42v5.64h-1.42v-5.64Zm3.12,0h1.42v5.64H205v-5.64Zm3.12,0h1.42v5.64h-1.42v-5.64Zm3.12,0h1.42v5.64h-1.42v-5.64Zm3.12,0h1.42v5.64h-1.42v-5.64Zm3.12,0h1.42v5.64h-1.42v-5.64Zm3.12,0h1.42v5.64h-1.42v-5.64Zm3.12,0h1.42v5.64h-1.42v-5.64Zm3.12,0h1.42v5.64h-1.42v-5.64Zm3.12,0h1.42v5.64H230Z" transform="translate(-39.25)"/><rect class="cls-28" x="146.16" y="195.99" width="45.14" height="7.32"/><path class="cls-27" d="M190.12,196.83h1.42v5.64h-1.42v-5.64Zm-3.12,0h1.42v5.64H187v-5.64Zm6.24,0h1.42v5.64h-1.42v-5.64Zm3.12,0h1.42v5.64h-1.42v-5.64Zm3.12,0h1.42v5.64h-1.42v-5.64Zm3.12,0H204v5.64h-1.42v-5.64Zm3.12,0h1.42v5.64h-1.42v-5.64Zm3.12,0h1.42v5.64h-1.42v-5.64Zm3.12,0h1.42v5.64H212v-5.64Zm3.12,0h1.42v5.64h-1.42v-5.64Zm3.12,0h1.42v5.64h-1.42v-5.64Zm3.12,0h1.42v5.64h-1.42v-5.64Zm3.12,0h1.42v5.64h-1.42v-5.64Zm3.12,0H229v5.64h-1.42Z" transform="translate(-39.25)"/><rect class="cls-26" x="152.34" y="188.67" width="45.14" height="7.32"/><path class="cls-27" d="M196.29,189.51h1.42v5.64h-1.42v-5.64Zm-3.12,0h1.42v5.64h-1.42v-5.64Zm6.24,0h1.42v5.64h-1.42v-5.64Zm3.12,0H204v5.64h-1.42v-5.64Zm3.12,0h1.42v5.64h-1.42v-5.64Zm3.12,0h1.42v5.64h-1.42v-5.64Zm3.12,0h1.42v5.64h-1.42v-5.64Zm3.12,0h1.42v5.64H215v-5.64Zm3.12,0h1.42v5.64h-1.42v-5.64Zm3.12,0h1.42v5.64h-1.42v-5.64Zm3.12,0h1.42v5.64h-1.42v-5.64Zm3.12,0h1.42v5.64h-1.42v-5.64Zm3.12,0H232v5.64h-1.42v-5.64Zm3.12,0h1.42v5.64h-1.42Z" transform="translate(-39.25)"/><rect class="cls-28" x="148.6" y="181.35" width="45.14" height="7.32"/><path class="cls-27" d="M192.55,182.19H194v5.64h-1.42v-5.64Zm-3.12,0h1.42v5.64h-1.42v-5.64Zm6.24,0h1.42v5.64h-1.42v-5.64Zm3.12,0h1.42v5.64h-1.42v-5.64Zm3.12,0h1.42v5.64h-1.42v-5.64Zm3.12,0h1.42v5.64H205v-5.64Zm3.12,0h1.42v5.64h-1.42v-5.64Zm3.12,0h1.42v5.64h-1.42v-5.64Zm3.12,0h1.42v5.64h-1.42v-5.64Zm3.12,0h1.42v5.64h-1.42v-5.64Zm3.12,0H222v5.64h-1.42v-5.64Zm3.12,0h1.42v5.64h-1.42v-5.64Zm3.12,0h1.42v5.64h-1.42v-5.64Zm3.12,0h1.42v5.64H230Z" transform="translate(-39.25)"/><rect class="cls-26" x="141.61" y="174.04" width="45.14" height="7.32"/><path class="cls-27" d="M185.56,174.87H187v5.64h-1.42v-5.64Zm-3.12,0h1.42v5.64h-1.42v-5.64Zm6.24,0h1.42v5.64h-1.42v-5.64Zm3.12,0h1.42v5.64H191.8v-5.64Zm3.12,0h1.42v5.64h-1.42v-5.64Zm3.12,0h1.42v5.64H198v-5.64Zm3.12,0h1.42v5.64h-1.42v-5.64Zm3.12,0h1.42v5.64h-1.42v-5.64Zm3.12,0h1.42v5.64H207.4v-5.64Zm3.12,0h1.42v5.64h-1.42v-5.64Zm3.12,0h1.42v5.64h-1.42v-5.64Zm3.12,0h1.42v5.64h-1.42v-5.64Zm3.12,0h1.42v5.64h-1.42v-5.64Zm3.12,0h1.42v5.64H223Z" transform="translate(-39.25)"/><rect class="cls-26" x="330.87" y="534.22" width="45.14" height="7.32"/><path class="cls-27" d="M374.83,535.06h1.42v5.64h-1.42v-5.64Zm-3.12,0h1.42v5.64h-1.42v-5.64Zm6.24,0h1.42v5.64h-1.42v-5.64Zm3.12,0h1.42v5.64h-1.42v-5.64Zm3.12,0h1.42v5.64h-1.42v-5.64Zm3.12,0h1.42v5.64H387.3v-5.64Zm3.12,0h1.42v5.64h-1.42v-5.64Zm3.12,0H395v5.64h-1.42v-5.64Zm3.12,0h1.42v5.64h-1.42v-5.64Zm3.12,0h1.42v5.64h-1.42v-5.64Zm3.12,0h1.42v5.64H402.9v-5.64Zm3.12,0h1.42v5.64H406v-5.64Zm3.12,0h1.42v5.64h-1.42v-5.64Zm3.12,0h1.42v5.64h-1.42Z" transform="translate(-39.25)"/><rect class="cls-28" x="328.42" y="526.9" width="45.14" height="7.32"/><path class="cls-27" d="M372.37,527.74h1.42v5.64h-1.42v-5.64Zm-3.12,0h1.42v5.64h-1.42v-5.64Zm6.24,0h1.42v5.64h-1.42v-5.64Zm3.12,0H380v5.64h-1.42v-5.64Zm3.12,0h1.42v5.64h-1.42v-5.64Zm3.12,0h1.42v5.64h-1.42v-5.64Zm3.12,0h1.42v5.64H388v-5.64Zm3.12,0h1.42v5.64h-1.42v-5.64Zm3.12,0h1.42v5.64h-1.42v-5.64Zm3.12,0h1.42v5.64h-1.42v-5.64Zm3.12,0h1.42v5.64h-1.42v-5.64Zm3.12,0H405v5.64h-1.42v-5.64Zm3.12,0h1.42v5.64h-1.42v-5.64Zm3.12,0h1.42v5.64H409.8Z" transform="translate(-39.25)"/><rect class="cls-26" x="334.6" y="519.58" width="45.14" height="7.32"/><path class="cls-27" d="M378.55,520.42H380v5.64h-1.42v-5.64Zm-3.12,0h1.42v5.64h-1.42v-5.64Zm6.24,0h1.42v5.64h-1.42v-5.64Zm3.12,0h1.42v5.64h-1.42v-5.64Zm3.12,0h1.42v5.64h-1.42v-5.64Zm3.12,0h1.42v5.64H391v-5.64Zm3.12,0h1.42v5.64h-1.42v-5.64Zm3.12,0h1.42v5.64h-1.42v-5.64Zm3.12,0h1.42v5.64h-1.42v-5.64Zm3.12,0h1.42v5.64H403.5v-5.64Zm3.12,0H408v5.64h-1.42v-5.64Zm3.12,0h1.42v5.64h-1.42v-5.64Zm3.12,0h1.42v5.64h-1.42v-5.64Zm3.12,0h1.42v5.64H416Z" transform="translate(-39.25)"/><rect class="cls-28" x="330.85" y="512.26" width="45.14" height="7.32"/><path class="cls-27" d="M374.81,513.1h1.42v5.64h-1.42V513.1Zm-3.12,0h1.42v5.64h-1.42V513.1Zm6.24,0h1.42v5.64h-1.42V513.1Zm3.12,0h1.42v5.64H381V513.1Zm3.12,0h1.42v5.64h-1.42V513.1Zm3.12,0h1.42v5.64h-1.42V513.1Zm3.12,0h1.42v5.64h-1.42V513.1Zm3.12,0h1.42v5.64h-1.42V513.1Zm3.12,0h1.42v5.64h-1.42V513.1Zm3.12,0h1.42v5.64h-1.42V513.1Zm3.12,0h1.42v5.64h-1.42V513.1Zm3.12,0h1.42v5.64H406V513.1Zm3.12,0h1.42v5.64h-1.42V513.1Zm3.12,0h1.42v5.64h-1.42Z" transform="translate(-39.25)"/><rect class="cls-26" x="323.86" y="504.95" width="45.14" height="7.32"/><path class="cls-27" d="M367.82,505.78h1.42v5.64h-1.42v-5.64Zm-3.12,0h1.42v5.64H364.7v-5.64Zm6.24,0h1.42v5.64h-1.42v-5.64Zm3.12,0h1.42v5.64h-1.42v-5.64Zm3.12,0h1.42v5.64h-1.42v-5.64Zm3.12,0h1.42v5.64H380.3v-5.64Zm3.12,0h1.42v5.64h-1.42v-5.64Zm3.12,0H388v5.64h-1.42v-5.64Zm3.12,0h1.42v5.64h-1.42v-5.64Zm3.12,0h1.42v5.64h-1.42v-5.64Zm3.12,0h1.42v5.64h-1.42v-5.64Zm3.12,0h1.42v5.64H399v-5.64Zm3.12,0h1.42v5.64h-1.42v-5.64Zm3.12,0h1.42v5.64h-1.42Z" transform="translate(-39.25)"/><rect class="cls-28" x="333.03" y="497.63" width="45.14" height="7.32"/><path class="cls-27" d="M377,498.47h1.42v5.64H377v-5.64Zm-3.12,0h1.42v5.64h-1.42v-5.64Zm6.24,0h1.42v5.64h-1.42v-5.64Zm3.12,0h1.42v5.64h-1.42v-5.64Zm3.12,0h1.42v5.64h-1.42v-5.64Zm3.12,0h1.42v5.64h-1.42v-5.64Zm3.12,0H394v5.64h-1.42v-5.64Zm3.12,0h1.42v5.64H395.7v-5.64Zm3.12,0h1.42v5.64h-1.42v-5.64Zm3.12,0h1.42v5.64h-1.42v-5.64Zm3.12,0h1.42v5.64h-1.42v-5.64Zm3.12,0h1.42v5.64h-1.42v-5.64Zm3.12,0h1.42v5.64H411.3v-5.64Zm3.12,0h1.42v5.64h-1.42Z" transform="translate(-39.25)"/><rect class="cls-26" x="326.04" y="490.31" width="45.14" height="7.32"/><path class="cls-27" d="M370,491.15h1.42v5.64H370v-5.64Zm-3.12,0h1.42v5.64h-1.42v-5.64Zm6.24,0h1.42v5.64h-1.42v-5.64Zm3.12,0h1.42v5.64h-1.42v-5.64Zm3.12,0h1.42v5.64h-1.42v-5.64Zm3.12,0h1.42v5.64h-1.42v-5.64Zm3.12,0H387v5.64H385.6v-5.64Zm3.12,0h1.42v5.64h-1.42v-5.64Zm3.12,0h1.42v5.64h-1.42v-5.64Zm3.12,0h1.42v5.64H395v-5.64Zm3.12,0h1.42v5.64h-1.42v-5.64Zm3.12,0h1.42v5.64h-1.42v-5.64Zm3.12,0h1.42v5.64h-1.42v-5.64Zm3.12,0h1.42v5.64h-1.42Z" transform="translate(-39.25)"/><rect class="cls-26" x="273.01" y="534.22" width="45.14" height="7.32"/><path class="cls-27" d="M317,535.06h1.42v5.64H317v-5.64Zm-3.12,0h1.42v5.64h-1.42v-5.64Zm6.24,0h1.42v5.64h-1.42v-5.64Zm3.12,0h1.42v5.64H323.2v-5.64Zm3.12,0h1.42v5.64h-1.42v-5.64Zm3.12,0h1.42v5.64h-1.42v-5.64Zm3.12,0H334v5.64h-1.42v-5.64Zm3.12,0h1.42v5.64h-1.42v-5.64Zm3.12,0h1.42v5.64H338.8v-5.64Zm3.12,0h1.42v5.64h-1.42v-5.64Zm3.12,0h1.42v5.64H345v-5.64Zm3.12,0h1.42v5.64h-1.42v-5.64Zm3.12,0h1.42v5.64h-1.42v-5.64Zm3.12,0h1.42v5.64H354.4Z" transform="translate(-39.25)"/><rect class="cls-28" x="270.56" y="526.9" width="45.14" height="7.32"/><path class="cls-27" d="M314.51,527.74h1.42v5.64h-1.42v-5.64Zm-3.12,0h1.42v5.64h-1.42v-5.64Zm6.24,0h1.42v5.64h-1.42v-5.64Zm3.12,0h1.42v5.64h-1.42v-5.64Zm3.12,0h1.42v5.64h-1.42v-5.64Zm3.12,0h1.42v5.64H327v-5.64Zm3.12,0h1.42v5.64h-1.42v-5.64Zm3.12,0h1.42v5.64h-1.42v-5.64Zm3.12,0h1.42v5.64h-1.42v-5.64Zm3.12,0h1.42v5.64h-1.42v-5.64Zm3.12,0H344v5.64h-1.42v-5.64Zm3.12,0h1.42v5.64h-1.42v-5.64Zm3.12,0h1.42v5.64h-1.42v-5.64Zm3.12,0h1.42v5.64h-1.42Z" transform="translate(-39.25)"/><rect class="cls-26" x="267.37" y="519.58" width="45.14" height="7.32"/><path class="cls-27" d="M311.33,520.42h1.42v5.64h-1.42v-5.64Zm-3.12,0h1.42v5.64h-1.42v-5.64Zm6.24,0h1.42v5.64h-1.42v-5.64Zm3.12,0H319v5.64h-1.42v-5.64Zm3.12,0h1.42v5.64h-1.42v-5.64Zm3.12,0h1.42v5.64h-1.42v-5.64Zm3.12,0h1.42v5.64h-1.42v-5.64Zm3.12,0h1.42v5.64H330v-5.64Zm3.12,0h1.42v5.64h-1.42v-5.64Zm3.12,0h1.42v5.64h-1.42v-5.64Zm3.12,0h1.42v5.64H339.4v-5.64Zm3.12,0h1.42v5.64h-1.42v-5.64Zm3.12,0h1.42v5.64h-1.42v-5.64Zm3.12,0h1.42v5.64h-1.42Z" transform="translate(-39.25)"/><rect class="cls-28" x="272.99" y="512.26" width="45.14" height="7.32"/><path class="cls-27" d="M316.95,513.1h1.42v5.64h-1.42V513.1Zm-3.12,0h1.42v5.64h-1.42V513.1Zm6.24,0h1.42v5.64h-1.42V513.1Zm3.12,0h1.42v5.64h-1.42V513.1Zm3.12,0h1.42v5.64H326.3V513.1Zm3.12,0h1.42v5.64h-1.42V513.1Zm3.12,0H334v5.64h-1.42V513.1Zm3.12,0h1.42v5.64h-1.42V513.1Zm3.12,0h1.42v5.64h-1.42V513.1Zm3.12,0h1.42v5.64H341.9V513.1Zm3.12,0h1.42v5.64H345V513.1Zm3.12,0h1.42v5.64h-1.42V513.1Zm3.12,0h1.42v5.64h-1.42V513.1Zm3.12,0h1.42v5.64h-1.42Z" transform="translate(-39.25)"/><rect class="cls-26" x="271.34" y="504.95" width="45.14" height="7.32"/><path class="cls-27" d="M315.3,505.78h1.42v5.64H315.3v-5.64Zm-3.12,0h1.42v5.64h-1.42v-5.64Zm6.24,0h1.42v5.64h-1.42v-5.64Zm3.12,0H323v5.64h-1.42v-5.64Zm3.12,0h1.42v5.64h-1.42v-5.64Zm3.12,0h1.42v5.64h-1.42v-5.64Zm3.12,0h1.42v5.64h-1.42v-5.64Zm3.12,0h1.42v5.64H334v-5.64Zm3.12,0h1.42v5.64h-1.42v-5.64Zm3.12,0h1.42v5.64h-1.42v-5.64Zm3.12,0h1.42v5.64h-1.42v-5.64Zm3.12,0h1.42v5.64h-1.42v-5.64Zm3.12,0H351v5.64h-1.42v-5.64Zm3.12,0h1.42v5.64h-1.42Z" transform="translate(-39.25)"/><rect class="cls-5" x="30.99" y="541.54" width="520.51" height="8.34"/><rect class="cls-26" x="252.56" y="174.52" width="45.14" height="7.32"/><path class="cls-27" d="M296.51,175.35h1.42V181h-1.42v-5.64Zm-3.12,0h1.42V181h-1.42v-5.64Zm6.24,0h1.42V181h-1.42v-5.64Zm3.12,0h1.42V181h-1.42v-5.64Zm3.12,0h1.42V181h-1.42v-5.64Zm3.12,0h1.42V181H309v-5.64Zm3.12,0h1.42V181h-1.42v-5.64Zm3.12,0h1.42V181h-1.42v-5.64Zm3.12,0h1.42V181h-1.42v-5.64Zm3.12,0h1.42V181h-1.42v-5.64Zm3.12,0H326V181h-1.42v-5.64Zm3.12,0h1.42V181h-1.42v-5.64Zm3.12,0h1.42V181h-1.42v-5.64Zm3.12,0h1.42V181h-1.42Z" transform="translate(-39.25)"/><rect class="cls-28" x="250.1" y="167.2" width="45.14" height="7.32"/><path class="cls-27" d="M294.06,168h1.42v5.64h-1.42V168Zm-3.12,0h1.42v5.64h-1.42V168Zm6.24,0h1.42v5.64h-1.42V168Zm3.12,0h1.42v5.64H300.3V168Zm3.12,0h1.42v5.64h-1.42V168Zm3.12,0H308v5.64h-1.42V168Zm3.12,0h1.42v5.64h-1.42V168Zm3.12,0h1.42v5.64h-1.42V168Zm3.12,0h1.42v5.64h-1.42V168Zm3.12,0h1.42v5.64H319V168Zm3.12,0h1.42v5.64h-1.42V168Zm3.12,0h1.42v5.64h-1.42V168Zm3.12,0h1.42v5.64h-1.42V168Zm3.12,0h1.42v5.64h-1.42Z" transform="translate(-39.25)"/><rect class="cls-26" x="256.28" y="159.88" width="45.14" height="7.32"/><path class="cls-27" d="M300.23,160.72h1.42v5.64h-1.42v-5.64Zm-3.12,0h1.42v5.64h-1.42v-5.64Zm6.24,0h1.42v5.64h-1.42v-5.64Zm3.12,0h1.42v5.64h-1.42v-5.64Zm3.12,0H311v5.64h-1.42v-5.64Zm3.12,0h1.42v5.64h-1.42v-5.64Zm3.12,0h1.42v5.64h-1.42v-5.64Zm3.12,0h1.42v5.64H319v-5.64Zm3.12,0h1.42v5.64h-1.42v-5.64Zm3.12,0h1.42v5.64h-1.42v-5.64Zm3.12,0h1.42v5.64h-1.42v-5.64Zm3.12,0h1.42v5.64h-1.42v-5.64Zm3.12,0H336v5.64h-1.42v-5.64Zm3.12,0h1.42v5.64h-1.42Z" transform="translate(-39.25)"/><rect class="cls-28" x="252.54" y="152.56" width="45.14" height="7.32"/><path class="cls-27" d="M296.49,153.4h1.42V159h-1.42V153.4Zm-3.12,0h1.42V159h-1.42V153.4Zm6.24,0H301V159h-1.42V153.4Zm3.12,0h1.42V159h-1.42V153.4Zm3.12,0h1.42V159h-1.42V153.4Zm3.12,0h1.42V159H309V153.4Zm3.12,0h1.42V159h-1.42V153.4Zm3.12,0h1.42V159h-1.42V153.4Zm3.12,0h1.42V159h-1.42V153.4Zm3.12,0h1.42V159h-1.42V153.4Zm3.12,0H326V159h-1.42V153.4Zm3.12,0h1.42V159h-1.42V153.4Zm3.12,0h1.42V159h-1.42V153.4Zm3.12,0h1.42V159h-1.42Z" transform="translate(-39.25)"/><rect class="cls-26" x="245.55" y="145.24" width="45.14" height="7.32"/><path class="cls-27" d="M289.5,146.08h1.42v5.64H289.5v-5.64Zm-3.12,0h1.42v5.64h-1.42v-5.64Zm6.24,0H294v5.64h-1.42v-5.64Zm3.12,0h1.42v5.64h-1.42v-5.64Zm3.12,0h1.42v5.64h-1.42v-5.64Zm3.12,0h1.42v5.64H302v-5.64Zm3.12,0h1.42v5.64H305.1v-5.64Zm3.12,0h1.42v5.64h-1.42v-5.64Zm3.12,0h1.42v5.64h-1.42v-5.64Zm3.12,0h1.42v5.64h-1.42v-5.64Zm3.12,0H319v5.64h-1.42v-5.64Zm3.12,0h1.42v5.64H320.7v-5.64Zm3.12,0h1.42v5.64h-1.42v-5.64Zm3.12,0h1.42v5.64h-1.42Z" transform="translate(-39.25)"/><rect class="cls-28" x="254.72" y="137.93" width="45.14" height="7.32"/><path class="cls-27" d="M298.67,138.76h1.42v5.64h-1.42v-5.64Zm-3.12,0H297v5.64h-1.42v-5.64Zm6.24,0h1.42v5.64h-1.42v-5.64Zm3.12,0h1.42v5.64h-1.42v-5.64Zm3.12,0h1.42v5.64H308v-5.64Zm3.12,0h1.42v5.64h-1.42v-5.64Zm3.12,0h1.42v5.64h-1.42v-5.64Zm3.12,0h1.42v5.64h-1.42v-5.64Zm3.12,0h1.42v5.64h-1.42v-5.64Zm3.12,0H325v5.64h-1.42v-5.64Zm3.12,0h1.42v5.64h-1.42v-5.64Zm3.12,0h1.42v5.64h-1.42v-5.64Zm3.12,0h1.42v5.64H333v-5.64Zm3.12,0h1.42v5.64h-1.42Z" transform="translate(-39.25)"/><rect class="cls-26" x="247.73" y="130.61" width="45.14" height="7.32"/><path class="cls-27" d="M291.68,131.44h1.42v5.64h-1.42v-5.64Zm-3.12,0H290v5.64h-1.42v-5.64Zm6.24,0h1.42v5.64H294.8v-5.64Zm3.12,0h1.42v5.64h-1.42v-5.64Zm3.12,0h1.42v5.64H301v-5.64Zm3.12,0h1.42v5.64h-1.42v-5.64Zm3.12,0h1.42v5.64h-1.42v-5.64Zm3.12,0h1.42v5.64H310.4v-5.64Zm3.12,0h1.42v5.64h-1.42v-5.64Zm3.12,0h1.42v5.64h-1.42v-5.64Zm3.12,0h1.42v5.64h-1.42v-5.64Zm3.12,0h1.42v5.64h-1.42v-5.64Zm3.12,0h1.42v5.64H326v-5.64Zm3.12,0h1.42v5.64h-1.42Z" transform="translate(-39.25)"/><rect class="cls-15" x="204.14" y="181.84" width="277.23" height="27.96"/><rect class="cls-9" x="402.16" y="181.84" width="79.21" height="27.96"/><path class="cls-16" d="M441.41,190.21c33.34.34,41.06.68,74.4,1-33.34.34-41.06.68-74.4,1-56.16-.34-137.94-.68-194.09-1,56.15-.34,137.94-.68,194.09-1Zm0-4.78,74.4,1-74.4,1-194.09-1,194.09-1Zm0,9.56c33.34.34,41.06.68,74.4,1-33.34.34-41.06.68-74.4,1-56.16-.34-137.94-.68-194.09-1,56.15-.34,137.94-.68,194.09-1Zm0,4.78c33.34.34,41.06.68,74.4,1-33.34.34-41.06.68-74.4,1-56.16-.34-137.94-.68-194.09-1,56.15-.34,137.94-.68,194.09-1Zm0,4.78,74.4,1-74.4,1-194.09-1Z" transform="translate(-39.25)"/><rect class="cls-17" x="265.59" y="181.84" width="70.47" height="27.96"/><path class="cls-18" d="M311.32,181.84h8.3v28h-8.3v-28Zm49.21,0h8.3v28h-8.3Z" transform="translate(-39.25)"/><path class="cls-11" d="M441.41,206.59v-2l74.4,1-74.4,1Zm0-4.78v-2c33.34.34,41.06.68,74.4,1-33.34.34-41.06.68-74.4,1Zm0-4.78v-2c33.34.34,41.06.68,74.4,1-33.34.34-41.06.68-74.4,1Zm0-4.78v-2c33.34.34,41.06.68,74.4,1-33.34.34-41.06.68-74.4,1Zm0-4.78v-2l74.4,1Z" transform="translate(-39.25)"/></g></g></svg>